<svg version="1.1" id="Layer_1" xmlns="http://www.w3.org/2000/svg" xmlns:xlink="http://www.w3.org/1999/xlink" x="0px" y="0px"
	 viewBox="243.2 0 473.6 448" enable-background="new 243.2 0 473.6 448" xml:space="preserve">
<path fill="#fff" d="M343.4,85.6c48.6-25.7,50.9-26.9,97.3-31.8c10.2-1.1,25.1-24.4,20.9-48.6c3-2.2,8.2-6.4,14.3-4.8
	c9.7,2.5,15,32.7,11.8,51c36-2.2,91.2,9.4,97.6,19.2c-32.2-4.4-75.8,1.5-76.9,12.1c-3.5,32.6,26.6,34.4,37.8,71.8
	c-33.2-11.8-70.1-46.3-86.9-62.1c-19-0.5-47.5,26.3-87.2,60.1c0-32.6,44.7-65,40.1-73.6C409.2,73.2,366.1,86.6,343.4,85.6
	L343.4,85.6z"/>
<path fill="#fff" d="M456.6,104.7c19.8,10.8,68.7,69.4,95,60.6c16-5.4-12.3-52.2-32.7-78.3c5.3-11,64.9-8.4,82.6-8.6
	c69.1,34.7,115.3,98.2,115.3,170.7C716.8,358.9,610.8,448,480,448c-130.8,0-236.8-89.1-236.8-198.9c0-63.3,35.3-119.7,90.2-156.2
	c12.3-2.6,15.1,5.4,66.9-6.1c-24.5,9.2-46.8,52.8-36.7,77C394.5,170.7,434.1,105.6,456.6,104.7L456.6,104.7z"/>
</svg>
